
<svg xmlns="http://www.w3.org/2000/svg" xmlns:xlink="http://www.w3.org/1999/xlink" width="1061" height="1080" viewBox="0 0 1061 1080">
  <defs>
      <linearGradient id="u2dv9234gc" x1=".5" x2=".5" y2="1" gradientUnits="objectBoundingBox">
          <stop offset="0" stop-color="#1e7ae4"/>
          <stop offset="1" stop-color="#6dd0fa"/>
      </linearGradient>
      <linearGradient id="ehtv3ijp8a" x1=".5" x2=".5" y2="1" gradientUnits="objectBoundingBox">
          <stop offset="0" stop-color="#59a5f9"/>
          <stop offset="1" stop-color="#094a92" stop-opacity="0"/>
      </linearGradient>
      <linearGradient id="0qz7o8xb4e" x1=".533" y1=".179" x2=".689" y2=".869" xlink:href="#ehtv3ijp8a"/>
      <linearGradient id="he95j4n1fg" x1=".5" x2=".5" y2="1" gradientUnits="objectBoundingBox">
          <stop offset="0" stop-color="#59a5f9"/>
          <stop offset="1" stop-color="#052f5e" stop-opacity=".161"/>
      </linearGradient>
      <linearGradient id="aw6t0h3hji" x1=".5" x2=".5" y2="1" gradientUnits="objectBoundingBox">
          <stop offset="0" stop-color="#4693ea"/>
          <stop offset="1" stop-color="#052f5e" stop-opacity="0"/>
      </linearGradient>
      <linearGradient id="9rpq12efal" x1=".5" x2=".5" y2="1" gradientUnits="objectBoundingBox">
          <stop offset="0" stop-color="#4795eb"/>
          <stop offset="1" stop-color="#094a92" stop-opacity=".169"/>
      </linearGradient>
      <filter id="vnxsh6prcd">
          <feOffset/>
          <feGaussianBlur stdDeviation="4" result="blur"/>
          <feFlood flood-opacity=".059" result="color"/>
          <feComposite operator="out" in="SourceGraphic" in2="blur"/>
          <feComposite operator="in" in="color"/>
          <feComposite operator="in" in2="SourceGraphic"/>
      </filter>
      <filter id="wnzxzztx3f">
          <feOffset/>
          <feGaussianBlur stdDeviation="44" result="blur-2"/>
          <feFlood flood-opacity=".059" result="color-2"/>
          <feComposite operator="out" in="SourceGraphic" in2="blur-2"/>
          <feComposite operator="in" in="color-2"/>
          <feComposite operator="in" in2="SourceGraphic"/>
      </filter>
      <filter id="inecmcfh8h">
          <feOffset/>
          <feGaussianBlur stdDeviation="4" result="blur-3"/>
          <feFlood flood-opacity=".059" result="color-3"/>
          <feComposite operator="out" in="SourceGraphic" in2="blur-3"/>
          <feComposite operator="in" in="color-3"/>
          <feComposite operator="in" in2="SourceGraphic"/>
      </filter>
      <filter id="217vdqowlj">
          <feOffset/>
          <feGaussianBlur stdDeviation="4" result="blur-4"/>
          <feFlood flood-opacity=".059" result="color-4"/>
          <feComposite operator="out" in="SourceGraphic" in2="blur-4"/>
          <feComposite operator="in" in="color-4"/>
          <feComposite operator="in" in2="SourceGraphic"/>
      </filter>
      <filter id="mjmjtlryem">
          <feOffset/>
          <feGaussianBlur stdDeviation="4" result="blur-5"/>
          <feFlood flood-opacity=".059" result="color-5"/>
          <feComposite operator="out" in="SourceGraphic" in2="blur-5"/>
          <feComposite operator="in" in="color-5"/>
          <feComposite operator="in" in2="SourceGraphic"/>
      </filter>
      <clipPath id="t4ved3r5ab">
          <path data-name="Rectangle 10292" transform="translate(-8351 4697)" style="stroke:#707070;fill:#fff" d="M0 0h1061v1080H0z"/>
      </clipPath>
      <clipPath id="v1hdkwx74k">
          <path data-name="Rectangle 10265" transform="translate(956 219)" style="stroke:#707070;fill:#fff" d="M0 0h105v174H0z"/>
      </clipPath>
  </defs>
  <g data-name="Mask Group 591" transform="translate(8351 -4697)" style="clip-path:url(#t4ved3r5ab)">
      <g data-name="Group 32449">
          <path data-name="Rectangle 10264" transform="translate(-8351 4697)" style="fill:url(#u2dv9234gc)" d="M0 0h1061v1080H0z"/>
          <g data-type="innerShadowGroup" transform="translate(6652 -2467)">
              <circle data-name="Ellipse 810" cx="118" cy="118" r="118" transform="translate(-14225 7596)" style="fill:url(#ehtv3ijp8a)"/>
              <g style="filter:url(#vnxsh6prcd)">
                  <circle data-name="Ellipse 810" cx="118" cy="118" r="118" transform="translate(-14225 7596)" style="fill:#fff"/>
              </g>
          </g>
          <g data-type="innerShadowGroup" transform="translate(6652 -2467)">
              <circle data-name="Ellipse 811" cx="292.5" cy="292.5" r="292.5" transform="translate(-15085 7037)" style="fill:url(#0qz7o8xb4e)"/>
              <g style="filter:url(#wnzxzztx3f)">
                  <circle data-name="Ellipse 811" cx="292.5" cy="292.5" r="292.5" transform="translate(-15085 7037)" style="fill:#fff"/>
              </g>
          </g>
          <g data-type="innerShadowGroup" transform="translate(6652 -2467)">
              <circle data-name="Ellipse 812" cx="63" cy="63" r="63" transform="translate(-14341 7320)" style="fill:url(#he95j4n1fg)"/>
              <g style="filter:url(#inecmcfh8h)">
                  <circle data-name="Ellipse 812" cx="63" cy="63" r="63" transform="translate(-14341 7320)" style="fill:#fff"/>
              </g>
          </g>
          <g data-type="innerShadowGroup" transform="translate(6652 -2467)">
              <circle data-name="Ellipse 813" cx="26" cy="26" r="26" transform="translate(-14112 7241)" style="fill:url(#aw6t0h3hji)"/>
              <g style="filter:url(#217vdqowlj)">
                  <circle data-name="Ellipse 813" cx="26" cy="26" r="26" transform="translate(-14112 7241)" style="fill:#fff"/>
              </g>
          </g>
          <g data-type="innerShadowGroup" data-name="Mask Group 590" transform="translate(-8351 4697)" style="clip-path:url(#v1hdkwx74k)">
              <circle data-name="Ellipse 814" cx="87" cy="87" r="87" transform="translate(956 219)" style="fill:url(#9rpq12efal)"/>
              <g style="filter:url(#mjmjtlryem)">
                  <circle data-name="Ellipse 814" cx="87" cy="87" r="87" transform="translate(956 219)" style="fill:#fff"/>
              </g>
          </g>
          <g data-name="Group 32453">
              <g data-name="Group 24132">
                  <path data-name="Rectangle 9131" style="fill:#bfe8ff" d="M0 0h156.469v179.506H0z" transform="translate(-8259.478 5006)"/>
                  <path data-name="Rectangle 9132" transform="translate(-8259.478 5200.184)" style="fill:#bfe8ff" d="M0 0h156.469v179.795H0z"/>
                  <path data-name="Rectangle 9133" transform="translate(-8090.096 5006)" style="fill:#bfe8ff" d="M0 0h159.623v179.506H0z"/>
                  <path data-name="Rectangle 9134" transform="translate(-8090.096 5200.184)" style="fill:#bfe8ff" d="M0 0h159.623v179.795H0z"/>
              </g>
              <path data-name="Path 46062" d="M1147.673 1894.344H230.612a2.937 2.937 0 0 1 0-5.874h917.061a2.937 2.937 0 0 1 0 5.874z" transform="translate(-8514.688 3742.434)" style="fill:#2e5b99"/>
              <g data-name="Group 24135">
                  <g data-name="Group 24133">
                      <path data-name="Path 46063" d="M2556.961 1588.316a58.518 58.518 0 0 0-7.343-21.914l2.08-1.2 4.11-2.366.051-.034a65.533 65.533 0 0 0-16.76-19.236l-4.407 5.682a58.544 58.544 0 0 0-20.7-10.28l1.876-6.96a65.241 65.241 0 0 0-25.463-1.77l.9 7.16a58.424 58.424 0 0 0-21.914 7.343l-3.6-6.241a65.932 65.932 0 0 0-19.237 16.76l5.682 4.407a58.541 58.541 0 0 0-10.281 20.7l-6.96-1.875a65.246 65.246 0 0 0-1.77 25.463l7.16-.9a58.413 58.413 0 0 0 7.343 21.914l-4.418 2.542-1.795 1.054h-.028a65.951 65.951 0 0 0 16.759 19.237l4.407-5.682a58.665 58.665 0 0 0 20.724 10.276l-1.876 6.96a65.1 65.1 0 0 0 25.437 1.773l-.905-7.16a58.565 58.565 0 0 0 21.942-7.346l2.79 4.855.809 1.386a65.808 65.808 0 0 0 19.209-16.756l-5.682-4.407a59.154 59.154 0 0 0 10.3-20.727l6.96 1.876a65.608 65.608 0 0 0 1.746-25.433zm-54.283 39.016a31.888 31.888 0 1 1 27.623-35.646 31.885 31.885 0 0 1-27.623 35.646z" transform="translate(-9928.727 3956.277)" style="fill:#e76b3a"/>
                  </g>
                  <g data-name="Group 24134">
                      <path data-name="Path 46064" d="M2452.3 1302.465a41.062 41.062 0 0 0-9.817-12.908l1.112-1.266 2.2-2.5.026-.034a45.97 45.97 0 0 0-15.47-9.007l-1.648 4.768a41.085 41.085 0 0 0-16.069-2.168l-.322-5.048a45.778 45.778 0 0 0-17.319 4.561l2.215 4.553a41 41 0 0 0-12.908 9.817l-3.8-3.336a46.262 46.262 0 0 0-9.007 15.47l4.769 1.649a41.085 41.085 0 0 0-2.169 16.069l-5.047.321a45.781 45.781 0 0 0 4.56 17.319l4.555-2.214a40.986 40.986 0 0 0 9.816 12.908l-2.363 2.685-.955 1.1-.017.009a46.259 46.259 0 0 0 15.47 9.007l1.648-4.768a41.168 41.168 0 0 0 16.087 2.16l.321 5.048a45.676 45.676 0 0 0 17.3-4.552l-2.214-4.554a41.094 41.094 0 0 0 12.925-9.825l2.948 2.6.85.739a46.185 46.185 0 0 0 8.99-15.462l-4.768-1.649a41.522 41.522 0 0 0 2.177-16.095l5.048-.321a46.023 46.023 0 0 0-4.569-17.294zm-27.282 38.155a22.374 22.374 0 1 1 10.325-29.91 22.373 22.373 0 0 1-10.32 29.91z" transform="translate(-9890.417 4109.979)" style="stroke:rgba(247,228,173,.45);stroke-width:3px;fill:none;stroke-miterlimit:10"/>
                  </g>
              </g>
              <g data-name="Group 26809">
                  <g data-name="Group 26772" transform="translate(-8135.276 5113.368)">
                      <g data-name="Group 26769">
                          <g data-name="Group 26763">
                              <g data-name="Group 26760">
                                  <g data-name="Group 26755">
                                      <g data-name="Group 26754">
                                          <g data-name="Group 26753">
                                              <g data-name="Group 26752">
                                                  <path data-name="Path 50786" d="M759.538 62.055H166.98a18.5 18.5 0 0 0-18.5 18.5v418.532a18.5 18.5 0 0 0 18.5 18.5H394.4s14.465 44.735-30.38 67.881h212.654s-50.633-17.359-37.613-67.881h220.478a18.5 18.5 0 0 0 18.5-18.5V80.552a18.5 18.5 0 0 0-18.501-18.497z" transform="translate(-148.483 -62.055)" style="fill:#455a64"/>
                                              </g>
                                          </g>
                                      </g>
                                  </g>
                                  <g data-name="Group 26759">
                                      <g data-name="Group 26758">
                                          <g data-name="Group 26757">
                                              <g data-name="Group 26756">
                                                  <path data-name="Path 50787" d="M390.035 364.35c8.06 11.52-4.556 24.136-16.078 16.077a4.07 4.07 0 0 1-.99-.993c-8.039-11.517 4.561-24.117 16.077-16.074a4.065 4.065 0 0 1 .991.99z" transform="translate(-67.348 47.163)" style="fill:#263238"/>
                                              </g>
                                          </g>
                                      </g>
                                  </g>
                              </g>
                              <g data-name="Group 26762">
                                  <g data-name="Group 26761">
                                      <path data-name="Rectangle 9753" d="M9.7 0h589.749a9.7 9.7 0 0 1 9.7 9.7v361.6H0V9.7A9.7 9.7 0 0 1 9.7 0z" style="fill:#ffe" transform="translate(10.203 7.668)"/>
                                  </g>
                              </g>
                          </g>
                          <g data-name="Group 26764">
                              <path data-name="Rectangle 9754" d="M9.154 0H601.63a7.516 7.516 0 0 1 7.516 7.516v23.336H0V9.154A9.154 9.154 0 0 1 9.154 0z" style="fill:#66b8ff" transform="translate(10.203 7.668)"/>
                          </g>
                          <g data-name="Group 26768">
                              <g data-name="Group 26765" transform="translate(25.322 19.462)">
                                  <circle data-name="Ellipse 719" cx="4.279" cy="4.279" r="4.279" style="fill:#0f4599"/>
                              </g>
                              <g data-name="Group 26766" transform="translate(38.079 19.462)">
                                  <circle data-name="Ellipse 720" cx="4.279" cy="4.279" r="4.279" style="fill:#e8505b"/>
                              </g>
                              <g data-name="Group 26767" transform="translate(50.209 19.462)">
                                  <circle data-name="Ellipse 721" cx="4.279" cy="4.279" r="4.279" style="fill:#ffca59"/>
                              </g>
                          </g>
                      </g>
                      <g data-name="Group 26771">
                          <g data-name="Group 26770">
                              <path data-name="Path 50788" d="M619.206 395.776c0 .2-84.323.356-188.315.356-104.028 0-188.331-.16-188.331-.356s84.3-.355 188.331-.355c103.993 0 188.315.158 188.315.355z" transform="translate(-114.091 59.813)" style="fill:#263238"/>
                          </g>
                      </g>
                      <g data-name="Group 24114">
                          <path data-name="Path 46019" d="M1889.17 2355.929h-3.945a3.548 3.548 0 0 1-3.548-3.547V2338.9a8.74 8.74 0 0 0-8.74-8.741h-24.448a8.741 8.741 0 0 0-8.74 8.741v13.484a3.547 3.547 0 0 1-3.547 3.547h-3.946a3.548 3.548 0 0 1-3.548-3.547V2338.9a19.78 19.78 0 0 1 19.781-19.782h24.448a19.781 19.781 0 0 1 19.782 19.782v13.484a3.548 3.548 0 0 1-3.549 3.545z" transform="translate(-1596.01 -2256.017)" style="fill:#bae2ff"/>
                          <path data-name="Path 46020" d="M1884.276 2403.874h-66.7a7.4 7.4 0 0 0-7.4 7.4v51.186a7.4 7.4 0 0 0 7.4 7.4h66.7a7.4 7.4 0 0 0 7.4-7.4v-51.186a7.4 7.4 0 0 0-7.4-7.4zm-23.805 49.474a2.74 2.74 0 0 1-2.665 3.38h-13.753a2.741 2.741 0 0 1-2.666-3.38l3.208-13.36a12.364 12.364 0 1 1 12.667 0z" transform="translate(-1586.226 -2300.778)" style="fill:#bae2ff"/>
                      </g>
                      <rect data-name="Rectangle 10293" width="170" height="305" rx="10" transform="translate(24.275 55.021)" style="fill:#bae2ff"/>
                      <rect data-name="Rectangle 9124" width="139.813" height="18.062" rx="5.333" transform="translate(39.275 75.021)" style="opacity:.51;fill:#fff"/>
                      <rect data-name="Rectangle 9125" width="139.813" height="18.062" rx="5.333" transform="translate(39.275 113.021)" style="opacity:.51;fill:#fff"/>
                      <g data-name="Group 32454" transform="translate(-9.321 32)">
                          <rect data-name="Rectangle 10295" width="237.663" height="18.062" rx="5.333" transform="translate(233.275 157.021)" style="opacity:.51;fill:#bae2ff"/>
                          <rect data-name="Rectangle 10294" width="237.663" height="18.062" rx="5.333" transform="translate(233.275 195.021)" style="opacity:.51;fill:#bae2ff"/>
                          <rect data-name="Rectangle 10296" width="118.832" height="18.062" rx="5.333" transform="translate(233.275 233.021)" style="opacity:.51;fill:#bae2ff"/>
                      </g>
                      <path data-name="Rectangle 9126" d="M5.334 0H134.48a5.333 5.333 0 0 1 5.333 5.333v7.4a5.333 5.333 0 0 1-5.333 5.333H5.332A5.332 5.332 0 0 1 0 12.73v-7.4A5.334 5.334 0 0 1 5.334 0z" transform="translate(39.275 151.021)" style="opacity:.51;fill:#fff"/>
                      <path data-name="Rectangle 9127" d="M5.334 0H134.48a5.334 5.334 0 0 1 5.334 5.334v7.4a5.333 5.333 0 0 1-5.333 5.333H5.334A5.334 5.334 0 0 1 0 12.728V5.334A5.334 5.334 0 0 1 5.334 0z" transform="translate(39.275 189.021)" style="opacity:.51;fill:#fff"/>
                  </g>
              </g>
              <g data-name="Group 24140">
                  <g data-name="Group 24136">
                      <path data-name="Path 46065" d="M601.6 1255.955c6.121 6.314-2.83 14.094-2.757 24.229s12.3 13.832 2.428 28.742c-6.082 9.183-14.062-.375-18.063 12.823s1.072 14.478-4.959 19.983c-10.515 9.6-31.311-4.372-27.258-17.564s16.487-14.116 9.167-23.219-10.139-13.079-1.21-19.844c11.051-8.372 22.678-4.263 22.116-13.76s12.436-19.745 20.536-11.39z" transform="translate(-8718.743 4144.221)" style="fill:#ffca59"/>
                      <path data-name="Path 46066" d="m586.246 1380.575-2.1-.068c1.613-49.789 27.691-88.756 27.954-89.143l1.741 1.182c-.263.382-26.002 38.868-27.595 88.029z" transform="translate(-8740.027 4119.89)" style="fill:#0e0e0e"/>
                  </g>
                  <g data-name="Group 24137">
                      <path data-name="Path 46067" d="M334.435 1190.568c-6.533 9.792 7.131 17.872 9.483 31.232s-13.193 15.9 3.411 33.144c10.226 10.62 13.376 5.25 14.872 26.163 1.317 18.412 17.2 3.173 25.983 15.044 11.332 15.318 35.823-11.735 27.3-28.123s-21.312-14.147-13.874-27.9 2.318-25.54-11.071-32.289c-16.572-8.352-24.762 5.4-26.317-7.239s-21.146-22.982-29.787-10.032z" transform="translate(-8581.068 4187.377)" style="fill:#e76b3a"/>
                      <path data-name="Path 46068" d="M435.461 1344.584c-13.98-64.373-57.157-108.789-57.591-109.23l2.007-1.977c.44.447 44.184 45.448 58.336 110.609z" transform="translate(-8609.633 4156.545)" style="fill:#0e0e0e"/>
                  </g>
                  <g data-name="Group 24139">
                      <g data-name="Group 24138">
                          <path data-name="Path 46069" d="M483.846 1629.445a41.552 41.552 0 0 1-41.552-41.552v-56.646h83.1v56.646a41.552 41.552 0 0 1-41.548 41.552z" transform="translate(-8650.359 3968.249)" style="fill:#5896fa"/>
                          <path data-name="Rectangle 9135" transform="translate(-8212.67 5542.305)" style="fill:#0e0e0e" d="M0 0h4.606v87.923H0z"/>
                          <path data-name="Rectangle 9136" transform="translate(-8124.96 5542.305)" style="fill:#0e0e0e" d="M0 0h4.606v87.923H0z"/>
                          <path data-name="Rectangle 9137" transform="translate(-8160.203 5542.305)" style="fill:#0e0e0e" d="M0 0h4.606v87.923H0z"/>
                      </g>
                      <path data-name="Rectangle 9138" transform="translate(-8212.67 5597.694)" style="fill:#0e0e0e" d="M0 0h87.923v4.605H0z"/>
                  </g>
              </g>
              <g data-name="Group 32453">
                  <g data-name="Speech bubble">
                      <g data-name="Group 32428">
                          <g data-name="Group 32424">
                              <path data-name="Path 53085" d="M157.287 148.262H201.4a13.584 13.584 0 0 1 13.585 13.585v38.395a13.583 13.583 0 0 1-13.585 13.584h-12.876l10.8 21.343-19.935-21.343h-22.1a13.585 13.585 0 0 1-13.589-13.585v-38.394a13.585 13.585 0 0 1 13.587-13.585z" transform="translate(-7744.213 5066.28)" style="fill:#407bff"/>
                              <path data-name="Path 53086" d="M157.287 148.262H201.4a13.584 13.584 0 0 1 13.585 13.585v38.395a13.583 13.583 0 0 1-13.585 13.584h-12.876l10.8 21.343-19.935-21.343h-22.1a13.585 13.585 0 0 1-13.589-13.585v-38.394a13.585 13.585 0 0 1 13.587-13.585z" transform="translate(-7744.213 5066.28)" style="opacity:.7;fill:#fff"/>
                          </g>
                          <g data-name="Group 32427">
                              <g data-name="Group 32425" transform="translate(-7595.833 5216.193)" style="isolation:isolate">
                                  <circle data-name="Ellipse 815" cx="21.896" cy="21.896" r="21.896" transform="rotate(-135 28.31 24.552)" style="fill:#f7af0c"/>
                              </g>
                              <g data-name="Group 32426">
                                  <path data-name="Path 53087" d="M173.711 182.693a2.013 2.013 0 0 0 1.534-.709l8.591-10.123a2.012 2.012 0 0 0-3.068-2.6l-7.056 8.314-11.653-13.729a2.012 2.012 0 1 0-3.07 2.6l13.188 15.538a2.013 2.013 0 0 0 1.534.709z" transform="translate(-7736.28 5074.246)" style="fill:#fff"/>
                              </g>
                          </g>
                      </g>
                  </g>
                  <g data-name="Group 32447">
                      <g data-name="Group 32429">
                          <path data-name="Path 53088" d="M293.124 487.193h-89.373a1.756 1.756 0 0 1-1.757-1.757v-5.7a1.756 1.756 0 0 1 1.757-1.757h84.766V295.516H205.2a3.2 3.2 0 0 1-3.2-3.2V286.3h91.13a4.608 4.608 0 0 1 4.607 4.607v191.679a4.608 4.608 0 0 1-4.613 4.607z" transform="translate(-7916.474 5140.225)" style="fill:#263238"/>
                      </g>
                      <g data-name="Group 32430" style="opacity:.3;isolation:isolate">
                          <path data-name="Path 53089" d="M297.726 290.911v191.667a4.6 4.6 0 0 1-4.607 4.607h-89.374a1.749 1.749 0 0 1-1.751-1.751v-5.7a1.762 1.762 0 0 1 1.751-1.766h84.768v-182.45h-83.325a3.2 3.2 0 0 1-3.194-3.21v-6h91.125a4.6 4.6 0 0 1 4.607 4.603z" transform="translate(-7916.469 5140.226)" style="fill:#fff"/>
                      </g>
                      <path data-name="Path 53090" d="M297.726 290.911v48.88q-4.607 1.175-9.214 2.257v-46.53h-83.324a3.2 3.2 0 0 1-3.194-3.21v-6h91.125a4.6 4.6 0 0 1 4.607 4.603z" transform="translate(-7916.469 5140.226)" style="opacity:.2"/>
                      <g data-name="Group 32432">
                          <path data-name="Path 53091" d="m185.054 418.276-36.65-3.194v-48.133h-12.885v48.12l-36.781 3.206a6.332 6.332 0 0 0-5.711 6.3v4.88h97.736v-4.88a6.33 6.33 0 0 0-5.709-6.299z" transform="translate(-7642.168 5183.425)" style="fill:#263238"/>
                          <path data-name="Path 53092" d="m185.054 418.276-36.65-3.194v-48.133h-12.885v48.12l-36.781 3.206a6.332 6.332 0 0 0-5.711 6.3v4.88h97.736v-4.88a6.33 6.33 0 0 0-5.709-6.299z" transform="translate(-7642.168 5183.425)" style="opacity:.1;isolation:isolate;fill:#fff"/>
                          <path data-name="Path 53093" d="M165.793 414.536a8.424 8.424 0 1 1-8.425-8.425 8.424 8.424 0 0 1 8.425 8.425z" transform="translate(-7703.069 5204.403)" style="fill:#263238"/>
                          <path data-name="Path 53094" d="M89.782 414.536a8.424 8.424 0 1 0 8.425-8.425 8.424 8.424 0 0 0-8.425 8.425z" transform="translate(-7553.051 5204.403)" style="fill:#263238"/>
                          <path data-name="Rectangle 10285" d="M0 0h17.322v43.4a3.714 3.714 0 0 1-3.714 3.714H3.714A3.714 3.714 0 0 1 0 43.4V0z" transform="translate(-7508.868 5513.079)" style="fill:#263238"/>
                          <path data-name="Rectangle 10286" d="M0 0h17.322v43.4a3.714 3.714 0 0 1-3.714 3.714H3.714A3.714 3.714 0 0 1 0 43.4V0z" transform="translate(-7508.868 5513.079)" style="opacity:.2;isolation:isolate;fill:#fff"/>
                          <path data-name="Path 53095" d="M111.535 280.661s-3.97 79.588-21.109 93.289h18.331s16.347-27.112 17.567-93.289z" transform="translate(-7573.734 5137.203)" style="fill:#263238"/>
                          <path data-name="Path 53096" d="M111.535 280.661s-3.97 79.588-21.109 93.289h18.331s16.347-27.112 17.567-93.289z" transform="translate(-7573.734 5137.203)" style="opacity:.1;isolation:isolate;fill:#fff"/>
                          <path data-name="Rectangle 10287" d="M4.493 0h86.085a4.493 4.493 0 0 1 4.493 4.493v8.7H0v-8.7A4.493 4.493 0 0 1 4.493 0z" transform="translate(-7548.88 5504.558)" style="fill:#407bff"/>
                          <g data-name="Group 32431" transform="translate(-7552.498 5511.153)">
                              <rect data-name="Rectangle 10288" width="102.306" height="6.595" rx="1.807" style="fill:#263238"/>
                              <rect data-name="Rectangle 10289" width="102.306" height="6.595" rx="1.807" style="opacity:.6;isolation:isolate;fill:#fff"/>
                          </g>
                          <path data-name="Path 53097" d="M119.542 308.492H90.177c-8.6 0-14.816-7.729-13.878-17.266l1.253-12.726c.938-9.535 8.673-17.266 17.276-17.266h29.367c8.6 0 14.816 7.731 13.878 17.266l-1.253 12.728c-.94 9.535-8.674 17.264-17.278 17.264z" transform="translate(-7563.738 5126.796)" style="fill:#407bff"/>
                      </g>
                      <g data-name="&lt;Group&gt;">
                          <path data-name="Path 53098" d="M202.979 248.822s-7.681 27.581-18.486 35.2c-9.934 7.007-38.522 3.219-38.522 3.219" transform="translate(-7735.687 5120.148)" style="stroke-width:9.39px;stroke:#ffa599;fill:none;stroke-miterlimit:10"/>
                          <path data-name="Path 53099" d="M174.638 242.019c-4.842 1.659-9.246 8.621-21.4 36.514 0 0-1.975 3.418-11.846 5.545l.9 15.676s14.1-.617 17.372-2.884 22.889-34.511 22.889-34.511z" transform="translate(-7708.236 5116.503)" style="fill:#263238"/>
                          <path data-name="Path 53100" d="m141.4 284.083.906 15.664s11.3-.491 16.017-2.227a6.186 6.186 0 0 0 1.351-.645c1.889-1.321 9.26-12.669 15.126-22.006 4.285-6.788 7.755-12.516 7.755-12.516l-7.909-20.332c-4.837 1.659-9.245 8.615-21.407 36.5-.001.003-1.967 3.427-11.839 5.562z" transform="translate(-7708.241 5116.505)" style="opacity:.2;isolation:isolate;fill:#fff"/>
                          <path data-name="Path 53101" d="M146.451 291.5a6.185 6.185 0 0 0 1.351-.645c1.889-1.321 9.26-12.669 15.126-22.006a155.273 155.273 0 0 0-5.406-15.6s-11.286 22.53-11.071 38.251z" transform="translate(-7696.371 5122.52)" style="opacity:.2;isolation:isolate"/>
                          <g data-name="Group 32433">
                              <path data-name="Path 53102" d="m190.451 272.94-11.009-3.973 1.347 14.75s10.106 1.288 11.349-4.03z" transform="translate(-7776.248 5130.939)" style="fill:#ffa599"/>
                              <path data-name="Path 53103" d="m186.831 271.951 1.68 12.141 8.787-.376-1.348-14.75z" transform="translate(-7792.756 5130.939)" style="fill:#ffa599"/>
                          </g>
                          <path data-name="Path 53104" d="m172.529 268.967-5.618 1.688 2.05 15.238 5.62.972z" transform="translate(-7739.449 5130.939)" style="fill:#263238"/>
                          <path data-name="Path 53105" d="M295.74 305.094s-74.307 29.308-91.589 41.565-60.865 94.871-60.865 94.871l18.014 13.879s51.967-75.457 58.308-80.577 89.12-30.5 89.12-30.5z" transform="translate(-7837.315 5150.291)" style="fill:#407bff"/>
                          <path data-name="Path 53106" d="m143.288 441.536 18.012 13.882s12.132-17.614 25.385-36.4c14.174-20.1 29.639-41.54 32.925-44.181 4.638-3.747 50.14-18.336 74.265-25.891 8.876-2.795 14.85-4.622 14.85-4.622l-12.992-39.236s-74.3 29.316-91.588 41.571c-17.275 12.257-60.857 94.877-60.857 94.877z" transform="translate(-7837.315 5150.289)" style="opacity:.4;fill:#008c86;isolation:isolate"/>
                          <path data-name="Path 53107" d="m252.594 423.884-8.672-8.721 14.194-21.94 8.651 8.721z" transform="translate(-7949.899 5197.499)" style="fill:#ffa599"/>
                          <path data-name="Path 53108" d="m260.694 401.94-8.661-8.711-8.111 12.543 8.971 8.265z" transform="translate(-7943.825 5197.503)" style="opacity:.2;isolation:isolate"/>
                          <g data-name="Group 32434">
                              <path data-name="Path 53109" d="M263.151 408.936c-.034.009-.058.04-.094.037a.166.166 0 0 1-.078-.071 15.128 15.128 0 0 1-2.929-1.444 3.283 3.283 0 0 1-1.58-1.787 1.527 1.527 0 0 1 .6-1.523 1.081 1.081 0 0 1 1-.31c.846.192 1.678 1.4 2.307 2.552a4.475 4.475 0 0 1 .713-2.995 1.08 1.08 0 0 1 1.33-.161 1.407 1.407 0 0 1 .759.971c.349 1.663-1.884 4.335-1.995 4.489l-.143-.163.135.175c-.009.009.118.17.107.178a.23.23 0 0 1-.132.052zm-.077-1.139c.045.1.08.183.115.266.671-.954 1.677-2.629 1.46-3.617a.83.83 0 0 0-.362-.556l-.123-.071c-.365-.187-.567-.081-.68.045-.561.615-.69 2.582-.41 3.936zm-.51.378c-.68-1.549-1.8-3.543-2.647-3.729a.517.517 0 0 0-.49.152 1.053 1.053 0 0 0-.4.961c.173.794 1.473 1.749 3.537 2.615z" transform="translate(-7970.641 5202.776)" style="fill:#407bff"/>
                          </g>
                          <path data-name="Path 53110" d="m273.274 407.9 11.456 7.683a.871.871 0 0 1 .293 1.2l-.008.012-5.527 9.446a2.173 2.173 0 0 1-2.991.61c-3.954-2.746-5.7-4.254-10.719-7.675-3.088-2.082-9.389-5.908-13.164-9.42s-.2-7.147 1.706-5.994c4.538 2.718 12.411 3.879 16.8 3.551a3.439 3.439 0 0 1 2.154.587z" transform="translate(-7979.078 5203.027)" style="fill:#263238"/>
                          <path data-name="Path 53111" d="m257.721 415.822-22.5-14.976 5.182-10.576 24.37 16.909z" transform="translate(-7934.547 5195.918)" style="fill:#407bff"/>
                          <path data-name="Path 53112" d="m257.721 415.822-22.5-14.976 5.182-10.576 24.37 16.909z" transform="translate(-7934.547 5195.918)" style="opacity:.2;fill:#fff"/>
                          <path data-name="Path 53113" d="M151.128 414.475c14.174-20.1 29.639-41.54 32.925-44.181 4.638-3.747 50.14-18.336 74.265-25.891l2.81-29.255-8.815-1.566-1 2.242s-55.069 12.485-70.626 20.286c-10.041 5.036-23.508 54.301-29.559 78.365z" transform="translate(-7801.757 5154.837)" style="opacity:.2;isolation:isolate"/>
                          <g data-name="Group 32435">
                              <path data-name="Path 53114" d="M225.892 410.819c-.029.02-.043.057-.077.065a.169.169 0 0 1-.1-.04 15.157 15.157 0 0 1-3.242-.39 3.291 3.291 0 0 1-2.084-1.164 1.529 1.529 0 0 1 .058-1.635 1.084 1.084 0 0 1 .842-.625c.863-.1 2.049.763 3.024 1.645a4.48 4.48 0 0 1-.321-3.062 1.079 1.079 0 0 1 1.2-.593 1.413 1.413 0 0 1 1.04.663c.878 1.454-.342 4.716-.4 4.9l-.189-.106.186.121c-.006.011.167.121.161.132a.243.243 0 0 1-.098.089zm-.45-1.049c.074.077.135.144.2.21.316-1.121.711-3.034.178-3.894a.823.823 0 0 0-.525-.405l-.138-.025c-.408-.057-.562.111-.628.266-.329.768.2 2.667.913 3.848zm-.356.524c-1.155-1.236-2.876-2.743-3.733-2.64a.516.516 0 0 0-.413.307 1.057 1.057 0 0 0-.057 1.038c.417.693 1.967 1.164 4.203 1.295z" transform="translate(-7873.229 5203.804)" style="fill:#407bff"/>
                          </g>
                          <path data-name="Path 53115" d="m219.064 423.6-11.07-5.359 6.585-26.389 11.05 5.366z" transform="translate(-7853.585 5196.767)" style="fill:#ffa599"/>
                          <path data-name="Path 53116" d="m222.811 397.218-11.056-5.353-3.761 15.085 11.211 4.809z" transform="translate(-7850.767 5196.772)" style="opacity:.2;isolation:isolate"/>
                          <path data-name="Path 53117" d="m232.3 407.981 13.354 3.451a.873.873 0 0 1 .673 1.034v.014l-2.082 10.745a2.173 2.173 0 0 1-2.621 1.565c-4.641-1.279-6.792-2.122-12.657-3.687-3.6-.941-10.816-2.462-15.541-4.524s-2.558-6.679-.376-6.221c5.181 1.06 12.995-.455 17.029-2.221a3.448 3.448 0 0 1 2.221-.156z" transform="translate(-7878.304 5205.343)" style="fill:#263238"/>
                          <path data-name="Path 53118" d="M106.759 448.218s18.721-94 22.545-99.6c6.247-9.15 81.214-24.052 81.214-24.052l-8.806-1.58L211.9 296.01l66.762 2.632s-1.4 44.1-8.185 55.923-107.219 17.255-113.73 19.935-26.454 76.434-26.454 76.434z" transform="translate(-7751.15 5145.425)" style="fill:#407bff"/>
                          <path data-name="Path 53119" d="M106.759 448.218s18.721-94 22.545-99.6c6.247-9.15 81.214-24.052 81.214-24.052l-8.806-1.58L211.9 296.01l66.762 2.632s-1.4 44.1-8.185 55.923-107.219 17.255-113.73 19.935-26.454 76.434-26.454 76.434z" transform="translate(-7751.15 5145.425)" style="opacity:.4;fill:#008c86;isolation:isolate"/>
                          <path data-name="Path 53120" d="m227.352 408.729-26.19-6.673 1.384-11.7 28.6 7.876z" transform="translate(-7848.608 5195.966)" style="fill:#407bff"/>
                          <path data-name="Path 53121" d="m227.352 408.729-26.19-6.673 1.384-11.7 28.6 7.876z" transform="translate(-7848.608 5195.966)" style="opacity:.2;fill:#fff"/>
                          <g data-name="Group 32436">
                              <path data-name="Path 53122" d="m108.491 298.5 19.345-.337.417 5.855-20.6.5z" transform="translate(-7602.11 5146.579)" style="fill:#263238"/>
                              <path data-name="Path 53123" d="m166.489 298.34-.852 6.083-43.179-.613 1.4-5.551z" transform="translate(-7663.088 5146.629)" style="fill:#263238"/>
                              <path data-name="Path 53124" d="m147.1 299.742-.564 4.016a2.059 2.059 0 0 1-2.065 1.721l-6.906-.209a1.583 1.583 0 0 1-1.569-1.831l.562-4.016a2.062 2.062 0 0 1 2.067-1.721l6.906.207a1.585 1.585 0 0 1 1.569 1.833z" transform="translate(-7664.472 5146.331)" style="fill:#fff"/>
                          </g>
                          <g data-name="Group 32437">
                              <path data-name="Path 53125" d="M172.925 328.873H109.5a3.145 3.145 0 0 1-3.119-2.74c-7.829-61.362 7.121-82.635 7.121-82.635a113.493 113.493 0 0 1 17.384-3.538 223.362 223.362 0 0 1 25.814-.56 120.177 120.177 0 0 1 17.539 1.737c3.142 1.327 6.258 15.022 3.145 57.643-.815 11.166-.944 20.811-.866 26.463a3.581 3.581 0 0 1-3.593 3.63z" transform="translate(-7647.104 5115.023)" style="fill:#263238"/>
                              <path data-name="Path 53126" d="M153.909 256.171H141.7l-.935 14.584 6.559 4.25 6.585-3.253z" transform="translate(-7678.623 5124.084)" style="fill:#263238"/>
                              <path data-name="Path 53127" d="M106.386 326.136a3.135 3.135 0 0 0 3.117 2.733h63.423a3.585 3.585 0 0 0 3.593-3.624c-.077-5.651.046-15.3.86-26.46q.668-9.191.967-16.647a223.8 223.8 0 0 0-.154-27.212c-.768-9.245-2.35-13.1-3.947-13.79A122.433 122.433 0 0 0 156.7 239.4a226.011 226.011 0 0 0-25.8.553 115.533 115.533 0 0 0-17.384 3.547s-14.961 21.271-7.13 82.636z" transform="translate(-7647.108 5115.024)" style="opacity:.2;isolation:isolate;fill:#fff"/>
                          </g>
                          <path data-name="Path 53128" d="m140.123 247.447-20.494 6.986-.831-5.872c2-3.5 2.506-5.711.819-9.779l13.677-15.715c-.367 8.055 1.095 19.055 6.829 24.38z" transform="translate(-7631.105 5106.351)" style="fill:#ffa599"/>
                          <path data-name="Path 53129" d="m146.225 246.956-4.017 1.665-3.515 2.208s-4.675 26.807-3.366 49.436l-3.934 3.231-4.152-3.34s5.157-41.56 7.013-49.661l-.8-1.941-1.9-4.03 3.5-1.821 5.535 1.21h3.873z" transform="translate(-7650.168 5116.87)" style="fill:#fff"/>
                          <path data-name="Path 53130" d="m134.411 227.24-8.093 9.3a27.072 27.072 0 0 1 1.465 4.412c3.425-1.024 7.651-5.588 7.477-9.3a12.229 12.229 0 0 0-.849-4.412z" transform="translate(-7637.793 5108.587)" style="opacity:.2;isolation:isolate"/>
                          <path data-name="Path 53131" d="M144.49 236.522a97.067 97.067 0 0 1-18.457 9.59 18.12 18.12 0 0 1 0-8.707l-9.051 4.516s-.749 7.026 1.33 10.671l6.64-4.86 7.462 6.075s14.134-5.452 16.346-12.852z" transform="translate(-7636.748 5113.559)" style="fill:#263238"/>
                          <path data-name="Path 53132" d="m104.118 284.2 20.976 16.872c30.069 6.7 43.291-12.055 48.6-24.34a223.8 223.8 0 0 0-.154-27.212c-7.218-.338-16.2-.338-18.628 1.52-4.223 3.24-18.935 25.959-21.131 27.618-2.207 1.675-29.663 5.542-29.663 5.542z" transform="translate(-7642.457 5120.43)" style="opacity:.2;isolation:isolate"/>
                          <g data-name="Group 32438">
                              <path data-name="Path 53133" d="m167.309 272.862-11.009-3.973 1.348 14.75s10.1 1.288 11.347-4.028z" transform="translate(-7717.567 5130.897)" style="fill:#ffa599"/>
                              <path data-name="Path 53134" d="m163.689 271.873 1.68 12.141 8.787-.376-1.348-14.75z" transform="translate(-7734.075 5130.897)" style="fill:#ffa599"/>
                          </g>
                          <path data-name="Path 53135" d="M185.448 254.544s-12.437 26.288-24.072 32.567c-10.7 5.776-50.839-2.855-50.839-2.855" transform="translate(-7663.744 5123.213)" style="stroke-width:8.39px;stroke:#ffa599;fill:none;stroke-miterlimit:10"/>
                          <path data-name="Path 53136" d="M149.288 240.483c19.816 7.141-5.882 56.494-16.684 62.024s-29.064 3.185-29.064 3.185l-1.284-17.146s9.464-1.147 12.29-1.823c4.49-1.075 13.592-20.951 19.707-31.753s15.035-14.487 15.035-14.487z" transform="translate(-7622.155 5115.681)" style="fill:#263238"/>
                          <path data-name="Path 53137" d="M149.288 240.483c19.816 7.141-5.882 56.494-16.684 62.024s-29.064 3.185-29.064 3.185l-1.284-17.146s9.464-1.147 12.29-1.823c4.49-1.075 13.592-20.951 19.707-31.753s15.035-14.487 15.035-14.487z" transform="translate(-7622.155 5115.681)" style="opacity:.2;isolation:isolate;fill:#bfe8ff"/>
                          <path data-name="Path 53138" d="m140.5 270.989 1.6 19.911-5.679-1.059-1.5-17.793z" transform="translate(-7657.856 5132.022)" style="fill:#263238"/>
                          <g data-name="Group 32439">
                              <path data-name="Path 53139" d="M140.759 213.366c-.789 4.595 1.2 13.545 6.957 9.767s-5.601-17.665-6.957-9.767z" transform="translate(-7673.782 5099.874)" style="fill:#263238"/>
                              <path data-name="Path 53140" d="M154.774 218.113c2.214 11.233 4.083 17.7-.04 24.79-6.2 10.661-21.24 9.039-26.781-1.338-4.988-9.342-7.771-26.143 1.95-33.278a15.8 15.8 0 0 1 24.871 9.826z" transform="translate(-7655.238 5096.773)" style="fill:#ffa599"/>
                              <path data-name="Path 53141" d="m132.741 205.733-12.732-.585-.335 7.308c.241-.138.511-.27.739-.408 0 0 .808 10.67 6.9 14.32 8.252-6.298 10.669-16.587 5.428-20.635z" transform="translate(-7627.833 5096.753)" style="fill:#0e0e0e"/>
                              <path data-name="Path 53142" d="M130.944 220.808a10.746 10.746 0 0 1-3.6 7.457c-2.87 2.5-5.972.327-6.571-3.239-.539-3.208.3-8.377 3.858-9.509 3.495-1.117 6.469 1.773 6.313 5.291z" transform="translate(-7624.729 5102.177)" style="fill:#ffa599"/>
                              <path data-name="Path 53143" d="M137.587 218.857c.236.9-.052 1.751-.643 1.9s-1.261-.461-1.5-1.362.052-1.751.643-1.9 1.265.461 1.5 1.362z" transform="translate(-7654.09 5103.355)" style="fill:#263238"/>
                              <path data-name="Path 53144" d="M144.244 220.529c.236.9-.052 1.752-.643 1.9s-1.261-.461-1.5-1.362.052-1.751.643-1.9 1.265.462 1.5 1.362z" transform="translate(-7670.97 5104.25)" style="fill:#263238"/>
                              <path data-name="Path 53145" d="M141 219.806s-.8 5.533-2.446 8.535c1.946 1.01 4.487-.355 4.487-.355z" transform="translate(-7664.358 5104.605)" style="fill:#e87c5d"/>
                              <path data-name="Path 53146" d="M133.477 228.187a9.12 9.12 0 0 1-1.156.373.277.277 0 0 1-.335-.2.269.269 0 0 1 .2-.33 7.3 7.3 0 0 0 5.111-4.258.275.275 0 0 1 .521.178 7.593 7.593 0 0 1-4.341 4.237z" transform="translate(-7649.047 5106.632)" style="fill:#263238"/>
                              <path data-name="Path 53147" d="M138.842 216.487a.55.55 0 0 1-.548-.081 4.421 4.421 0 0 0-3.865-.912.553.553 0 0 1-.7-.347.542.542 0 0 1 .346-.688 5.486 5.486 0 0 1 4.9 1.1.542.542 0 0 1-.132.932z" transform="translate(-7653.053 5101.644)" style="fill:#263238"/>
                              <path data-name="Path 53148" d="M144.316 220.088a.552.552 0 0 1-.746-.617 5.4 5.4 0 0 1 3.038-3.937.553.553 0 0 1 .713.31.54.54 0 0 1-.3.7 4.212 4.212 0 0 0-2.373 3.145.535.535 0 0 1-.332.399z" transform="translate(-7676.363 5102.296)" style="fill:#263238"/>
                              <path data-name="Path 53149" d="M153.629 217.841a4.8 4.8 0 0 1-.771.539 5.085 5.085 0 0 1-4.917.2c-3.17-1.559-4.163-10.555-13.168-5.977a5.274 5.274 0 0 0-5.4 1.91c-2.32 2.841-.719 13.213-5.668 11.779s-4.088-2.962-4.088-2.962 1.385.877 2.21.183a4.661 4.661 0 0 1-1.347-5.168s1.2 1.419 2.007 1.139c0 0-1.5-5.3 1.362-12.451s20.434-5.556 20.434-5.556 2.218-3.7 10.152-1.12 11.559 12.143 10.3 16.313" transform="translate(-7657.119 5093.698)" style="fill:#0e0e0e"/>
                          </g>
                      </g>
                      <g data-name="Group 32440">
                          <path data-name="Path 53150" d="m149.637 279.231 1.133-4.283h46.572l21.446 2.141.816 2.141z" transform="translate(-7757.944 5134.142)" style="fill:#263238"/>
                          <path data-name="Path 53151" d="m149.637 279.231 1.133-4.283h46.572l21.446 2.141.816 2.141z" transform="translate(-7757.944 5134.142)" style="opacity:.5;isolation:isolate;fill:#fff"/>
                          <path data-name="Path 53152" d="M211.839 274.948v4.283h-47.705l1.133-4.283z" transform="translate(-7772.441 5134.142)" style="opacity:.2;isolation:isolate"/>
                      </g>
                      <g data-name="Group 32441">
                          <path data-name="Path 53153" d="M258.148 278.957a3.67 3.67 0 0 1-3.7 4.1h-71.341a4.584 4.584 0 0 1-4.469-4.1l-4.238-45.674a3.924 3.924 0 0 1 .092-1.333 3.643 3.643 0 0 1 3.606-2.767h71.343a4.582 4.582 0 0 1 4.467 4.1z" transform="translate(-7834.505 5109.628)" style="fill:#263238"/>
                          <path data-name="Path 53154" d="M258.148 278.957a3.67 3.67 0 0 1-3.7 4.1h-71.341a4.584 4.584 0 0 1-4.469-4.1l-4.238-45.674a3.924 3.924 0 0 1 .092-1.333 3.643 3.643 0 0 1 3.606-2.767h71.343a4.582 4.582 0 0 1 4.467 4.1z" transform="translate(-7834.505 5109.628)" style="opacity:.5;isolation:isolate;fill:#fff"/>
                          <path data-name="Path 53155" d="M256.708 282.092h-71.089a4.584 4.584 0 0 1-4.469-4.1l-4.237-45.674a3.925 3.925 0 0 1 .092-1.333h71.089a4.6 4.6 0 0 1 4.467 4.1l4.238 45.674a3.928 3.928 0 0 1-.091 1.333z" transform="translate(-7837.016 5110.593)" style="opacity:.1;isolation:isolate"/>
                          <path data-name="Path 53156" d="M201.627 246.023h14.759l-3.934 42.256 23.339 3.5v2.943h-49.155v-2.943l10.07-3.5z" transform="translate(-7830.949 5118.649)" style="fill:#263238"/>
                          <path data-name="Path 53157" d="M201.627 246.023h14.759l-3.934 42.256 23.339 3.5v2.943h-49.155v-2.943l10.07-3.5z" transform="translate(-7830.949 5118.649)" style="opacity:.5;isolation:isolate;fill:#fff"/>
                          <path data-name="Path 53158" d="m218.952 246.023-10.935 48.031-8.746-.26 4.921-47.771z" transform="translate(-7833.515 5118.649)" style="opacity:.2;isolation:isolate;fill:#fff"/>
                      </g>
                      <g data-name="Group 32446">
                          <g data-name="Group 32442">
                              <path data-name="Path 53159" d="M208.071 487.193H118.7a1.756 1.756 0 0 1-1.757-1.757v-5.7a1.756 1.756 0 0 1 1.757-1.757h84.766V295.516h-83.323a3.2 3.2 0 0 1-3.2-3.2V286.3h91.13a4.607 4.607 0 0 1 4.607 4.607v191.679a4.607 4.607 0 0 1-4.609 4.607z" transform="translate(-7700.807 5140.225)" style="fill:#263238"/>
                          </g>
                          <g data-name="Group 32443" style="opacity:.4;isolation:isolate">
                              <path data-name="Path 53160" d="M208.071 487.193H118.7a1.756 1.756 0 0 1-1.757-1.757v-5.7a1.756 1.756 0 0 1 1.757-1.757h84.766V295.516h-83.323a3.2 3.2 0 0 1-3.2-3.2V286.3h91.13a4.607 4.607 0 0 1 4.607 4.607v191.679a4.607 4.607 0 0 1-4.609 4.607z" transform="translate(-7700.807 5140.225)" style="fill:#fff"/>
                          </g>
                          <g data-name="Group 32444">
                              <path data-name="Rectangle 10290" d="M0 0h241.567v8.3a1.943 1.943 0 0 1-1.943 1.943H1.943A1.943 1.943 0 0 1 0 8.3V0z" transform="translate(-7719.874 5417.808)" style="fill:#407bff"/>
                          </g>
                          <path data-name="Rectangle 10291" transform="translate(-7719.874 5417.808)" style="opacity:.2;isolation:isolate" d="M0 0h241.567v5.12H0z"/>
                          <g data-name="Group 32445">
                              <path data-name="Path 53161" d="M359.952 283.5h-251.7a2.886 2.886 0 0 1-2.886-2.884 2.886 2.886 0 0 1 2.886-2.884h251.7a2.884 2.884 0 0 1 2.884 2.884 2.884 2.884 0 0 1-2.884 2.884z" transform="translate(-7833.193 5135.637)" style="fill:#407bff"/>
                          </g>
                      </g>
                  </g>
              </g>
          </g>
      </g>
  </g>
</svg>
